<mxfile host="app.diagrams.net" modified="2022-06-16T09:25:50.505Z" agent="5.0 (Windows NT 10.0; Win64; x64) AppleWebKit/537.36 (KHTML, like Gecko) Chrome/101.0.4951.67 Safari/537.36" etag="4pfD8pkASWp1PteWfNoP" version="20.0.1" type="github" pages="2">
  <diagram id="6Ef6SXUJIkwClmLpSIr-" name="基本概念">
    <mxGraphModel dx="2370" dy="1177" grid="1" gridSize="10" guides="1" tooltips="1" connect="1" arrows="1" fold="1" page="1" pageScale="1" pageWidth="827" pageHeight="1169" math="0" shadow="0">
      <root>
        <mxCell id="0" />
        <mxCell id="1" parent="0" />
        <mxCell id="J7ABB9_BUNGVXrfn_QlG-11" value="DataTunnel&lt;br&gt;&lt;font style=&quot;font-size: 12px;&quot;&gt;dispatch&lt;/font&gt;" style="shape=umlLifeline;perimeter=lifelinePerimeter;whiteSpace=wrap;html=1;container=1;collapsible=0;recursiveResize=0;outlineConnect=0;fontSize=14;" vertex="1" parent="1">
          <mxGeometry x="185" y="20" width="100" height="300" as="geometry" />
        </mxCell>
        <mxCell id="J7ABB9_BUNGVXrfn_QlG-12" value="OPS-DB" style="shape=umlLifeline;perimeter=lifelinePerimeter;whiteSpace=wrap;html=1;container=1;collapsible=0;recursiveResize=0;outlineConnect=0;fontSize=14;" vertex="1" parent="1">
          <mxGeometry x="333" y="20" width="100" height="300" as="geometry" />
        </mxCell>
        <mxCell id="J7ABB9_BUNGVXrfn_QlG-13" value="OBS" style="shape=umlLifeline;perimeter=lifelinePerimeter;whiteSpace=wrap;html=1;container=1;collapsible=0;recursiveResize=0;outlineConnect=0;fontSize=14;" vertex="1" parent="1">
          <mxGeometry x="483" y="20" width="100" height="300" as="geometry" />
        </mxCell>
        <mxCell id="J7ABB9_BUNGVXrfn_QlG-14" value="实例列表" style="html=1;verticalAlign=bottom;endArrow=block;rounded=0;fontSize=14;" edge="1" parent="1" source="J7ABB9_BUNGVXrfn_QlG-11">
          <mxGeometry width="80" relative="1" as="geometry">
            <mxPoint x="425" y="110" as="sourcePoint" />
            <mxPoint x="385" y="110" as="targetPoint" />
          </mxGeometry>
        </mxCell>
        <mxCell id="J7ABB9_BUNGVXrfn_QlG-15" value="查询OBS文件列表" style="html=1;verticalAlign=bottom;endArrow=block;rounded=0;fontSize=14;" edge="1" parent="1">
          <mxGeometry width="80" relative="1" as="geometry">
            <mxPoint x="234.5" y="198" as="sourcePoint" />
            <mxPoint x="532.5" y="198" as="targetPoint" />
          </mxGeometry>
        </mxCell>
        <mxCell id="J7ABB9_BUNGVXrfn_QlG-16" value="写入任务、文件列表" style="html=1;verticalAlign=bottom;endArrow=block;rounded=0;fontSize=14;" edge="1" parent="1" target="J7ABB9_BUNGVXrfn_QlG-12">
          <mxGeometry width="80" relative="1" as="geometry">
            <mxPoint x="234.5" y="289" as="sourcePoint" />
            <mxPoint x="385" y="289" as="targetPoint" />
          </mxGeometry>
        </mxCell>
        <mxCell id="J7ABB9_BUNGVXrfn_QlG-25" value="Data-Tunnel" style="rounded=0;whiteSpace=wrap;html=1;" vertex="1" parent="1">
          <mxGeometry x="210" y="530" width="160" height="50" as="geometry" />
        </mxCell>
        <mxCell id="J7ABB9_BUNGVXrfn_QlG-26" value="&lt;font style=&quot;font-size: 14px;&quot;&gt;OBS&lt;/font&gt;" style="rounded=1;whiteSpace=wrap;html=1;" vertex="1" parent="1">
          <mxGeometry x="352" y="420" width="90" height="40" as="geometry" />
        </mxCell>
        <mxCell id="J7ABB9_BUNGVXrfn_QlG-27" value="&lt;font style=&quot;font-size: 14px;&quot;&gt;OPS&lt;/font&gt;" style="shape=cylinder3;whiteSpace=wrap;html=1;boundedLbl=1;backgroundOutline=1;size=9;fontSize=24;" vertex="1" parent="1">
          <mxGeometry x="160" y="390" width="60" height="60" as="geometry" />
        </mxCell>
        <mxCell id="J7ABB9_BUNGVXrfn_QlG-28" value="" style="endArrow=classic;html=1;rounded=0;fontSize=14;entryX=0.5;entryY=1;entryDx=0;entryDy=0;entryPerimeter=0;exitX=0.25;exitY=0;exitDx=0;exitDy=0;" edge="1" parent="1" source="J7ABB9_BUNGVXrfn_QlG-25" target="J7ABB9_BUNGVXrfn_QlG-27">
          <mxGeometry width="50" height="50" relative="1" as="geometry">
            <mxPoint x="490" y="490" as="sourcePoint" />
            <mxPoint x="540" y="440" as="targetPoint" />
          </mxGeometry>
        </mxCell>
        <mxCell id="J7ABB9_BUNGVXrfn_QlG-29" value="1 查询任务列表&lt;br&gt;节点级别" style="text;html=1;strokeColor=none;fillColor=none;align=center;verticalAlign=middle;whiteSpace=wrap;rounded=0;fontSize=14;" vertex="1" parent="1">
          <mxGeometry x="160" y="480" width="110" height="30" as="geometry" />
        </mxCell>
        <mxCell id="J7ABB9_BUNGVXrfn_QlG-30" value="" style="endArrow=classic;html=1;rounded=0;fontSize=14;entryX=0.5;entryY=1;entryDx=0;entryDy=0;exitX=0.75;exitY=0;exitDx=0;exitDy=0;" edge="1" parent="1" source="J7ABB9_BUNGVXrfn_QlG-25" target="J7ABB9_BUNGVXrfn_QlG-26">
          <mxGeometry width="50" height="50" relative="1" as="geometry">
            <mxPoint x="330" y="520" as="sourcePoint" />
            <mxPoint x="540" y="530" as="targetPoint" />
          </mxGeometry>
        </mxCell>
        <mxCell id="J7ABB9_BUNGVXrfn_QlG-31" value="2 获取文件列表" style="text;html=1;strokeColor=none;fillColor=none;align=center;verticalAlign=middle;whiteSpace=wrap;rounded=0;fontSize=14;" vertex="1" parent="1">
          <mxGeometry x="320" y="480" width="110" height="30" as="geometry" />
        </mxCell>
        <mxCell id="J7ABB9_BUNGVXrfn_QlG-32" value="&lt;font style=&quot;font-size: 14px;&quot;&gt;ES&lt;/font&gt;" style="rounded=1;whiteSpace=wrap;html=1;" vertex="1" parent="1">
          <mxGeometry x="312" y="640" width="90" height="40" as="geometry" />
        </mxCell>
        <mxCell id="J7ABB9_BUNGVXrfn_QlG-33" value="3 持久化" style="text;html=1;strokeColor=none;fillColor=none;align=center;verticalAlign=middle;whiteSpace=wrap;rounded=0;fontSize=14;" vertex="1" parent="1">
          <mxGeometry x="242" y="600" width="110" height="30" as="geometry" />
        </mxCell>
        <mxCell id="J7ABB9_BUNGVXrfn_QlG-34" value="" style="endArrow=classic;html=1;rounded=0;fontSize=14;entryX=0.5;entryY=0;entryDx=0;entryDy=0;exitX=0.5;exitY=1;exitDx=0;exitDy=0;" edge="1" parent="1" source="J7ABB9_BUNGVXrfn_QlG-25" target="J7ABB9_BUNGVXrfn_QlG-32">
          <mxGeometry width="50" height="50" relative="1" as="geometry">
            <mxPoint x="340" y="540" as="sourcePoint" />
            <mxPoint x="407" y="470" as="targetPoint" />
          </mxGeometry>
        </mxCell>
        <mxCell id="g3qERzcOfBHlHsymraOp-1" value="" style="rounded=0;whiteSpace=wrap;html=1;" vertex="1" parent="1">
          <mxGeometry x="124.5" y="860" width="130" height="180" as="geometry" />
        </mxCell>
        <mxCell id="g3qERzcOfBHlHsymraOp-2" value="Node-A" style="text;html=1;strokeColor=none;fillColor=none;align=center;verticalAlign=middle;whiteSpace=wrap;rounded=0;" vertex="1" parent="1">
          <mxGeometry x="124.5" y="860" width="60" height="30" as="geometry" />
        </mxCell>
        <mxCell id="g3qERzcOfBHlHsymraOp-3" value="LogsIndex&lt;br&gt;Shards: 2, Replica: 2&lt;br&gt;Logs-Alias" style="text;html=1;strokeColor=none;fillColor=none;align=center;verticalAlign=middle;whiteSpace=wrap;rounded=0;" vertex="1" parent="1">
          <mxGeometry x="119.5" y="780" width="140" height="60" as="geometry" />
        </mxCell>
        <mxCell id="g3qERzcOfBHlHsymraOp-4" value="" style="rounded=0;whiteSpace=wrap;html=1;" vertex="1" parent="1">
          <mxGeometry x="296.5" y="860" width="130" height="180" as="geometry" />
        </mxCell>
        <mxCell id="g3qERzcOfBHlHsymraOp-5" value="Node-B" style="text;html=1;strokeColor=none;fillColor=none;align=center;verticalAlign=middle;whiteSpace=wrap;rounded=0;" vertex="1" parent="1">
          <mxGeometry x="296.5" y="860" width="60" height="30" as="geometry" />
        </mxCell>
        <mxCell id="g3qERzcOfBHlHsymraOp-6" value="Logs-Shard-1" style="rounded=1;whiteSpace=wrap;html=1;" vertex="1" parent="1">
          <mxGeometry x="137" y="919" width="105" height="30" as="geometry" />
        </mxCell>
        <mxCell id="g3qERzcOfBHlHsymraOp-7" value="" style="rounded=0;whiteSpace=wrap;html=1;" vertex="1" parent="1">
          <mxGeometry x="468.5" y="860" width="126" height="180" as="geometry" />
        </mxCell>
        <mxCell id="g3qERzcOfBHlHsymraOp-8" value="Node-C" style="text;html=1;strokeColor=none;fillColor=none;align=center;verticalAlign=middle;whiteSpace=wrap;rounded=0;" vertex="1" parent="1">
          <mxGeometry x="468.5" y="860" width="60" height="30" as="geometry" />
        </mxCell>
        <mxCell id="g3qERzcOfBHlHsymraOp-9" value="Logs-Replica-2-1" style="rounded=1;whiteSpace=wrap;html=1;" vertex="1" parent="1">
          <mxGeometry x="137" y="969" width="103.5" height="30" as="geometry" />
        </mxCell>
        <mxCell id="g3qERzcOfBHlHsymraOp-10" value="Logs-Replica-1-2" style="rounded=1;whiteSpace=wrap;html=1;" vertex="1" parent="1">
          <mxGeometry x="479.75" y="919" width="103.5" height="30" as="geometry" />
        </mxCell>
        <mxCell id="g3qERzcOfBHlHsymraOp-11" value="Logs-Replica-1-1" style="rounded=1;whiteSpace=wrap;html=1;" vertex="1" parent="1">
          <mxGeometry x="309" y="919" width="105" height="30" as="geometry" />
        </mxCell>
        <mxCell id="g3qERzcOfBHlHsymraOp-12" value="Logs-Shard-2" style="rounded=1;whiteSpace=wrap;html=1;" vertex="1" parent="1">
          <mxGeometry x="309" y="969" width="105" height="30" as="geometry" />
        </mxCell>
        <mxCell id="g3qERzcOfBHlHsymraOp-13" value="Logs-Replica-2-2" style="rounded=1;whiteSpace=wrap;html=1;" vertex="1" parent="1">
          <mxGeometry x="479.75" y="969" width="105" height="30" as="geometry" />
        </mxCell>
      </root>
    </mxGraphModel>
  </diagram>
  <diagram id="ety6GzUaWzLGjNR6wfjN" name="写入流程">
    <mxGraphModel dx="1422" dy="706" grid="1" gridSize="10" guides="1" tooltips="1" connect="1" arrows="1" fold="1" page="1" pageScale="1" pageWidth="827" pageHeight="1169" math="0" shadow="0">
      <root>
        <mxCell id="0" />
        <mxCell id="1" parent="0" />
        <mxCell id="vBjYf0XeIa-QB8WNCzNQ-1" value="&lt;font style=&quot;font-size: 24px;&quot;&gt;数据写入&lt;/font&gt;" style="rounded=0;whiteSpace=wrap;html=1;fillColor=#dae8fc;strokeColor=#6c8ebf;" parent="1" vertex="1">
          <mxGeometry x="309.44" y="20" width="133.71" height="60" as="geometry" />
        </mxCell>
        <mxCell id="uBwqjXRYKRhRdNdcchoJ-1" value="" style="rounded=1;whiteSpace=wrap;html=1;shadow=0;glass=0;sketch=0;fontSize=18;container=0;arcSize=9;fillColor=#fff2cc;strokeColor=#d6b656;" parent="1" vertex="1">
          <mxGeometry x="67.91" y="220" width="224.19" height="70" as="geometry" />
        </mxCell>
        <mxCell id="uBwqjXRYKRhRdNdcchoJ-2" value="Current data cannot be searched" style="text;html=1;strokeColor=none;fillColor=none;align=center;verticalAlign=middle;whiteSpace=wrap;rounded=0;shadow=0;glass=0;sketch=0;fontSize=14;container=0;" parent="1" vertex="1">
          <mxGeometry x="77.91" y="250" width="210" height="40" as="geometry" />
        </mxCell>
        <mxCell id="uBwqjXRYKRhRdNdcchoJ-3" value="&lt;font style=&quot;font-size: 24px&quot;&gt;&lt;b&gt;Buffer&lt;/b&gt;&lt;/font&gt;" style="text;html=1;strokeColor=none;fillColor=none;align=center;verticalAlign=middle;whiteSpace=wrap;rounded=0;shadow=0;glass=0;sketch=0;fontSize=14;container=0;" parent="1" vertex="1">
          <mxGeometry x="115.1951612903226" y="222.99999999999994" width="131.61290322580643" height="30" as="geometry" />
        </mxCell>
        <mxCell id="YKJ09xjwko8Qf0GW7CVx-1" value="" style="rounded=1;whiteSpace=wrap;html=1;shadow=0;glass=0;sketch=0;fontSize=18;container=0;arcSize=9;fillColor=#fff2cc;strokeColor=#d6b656;" parent="1" vertex="1">
          <mxGeometry x="443.15" y="220" width="224.19" height="70" as="geometry" />
        </mxCell>
        <mxCell id="YKJ09xjwko8Qf0GW7CVx-2" value="Keep Track of Recent Changes&lt;br&gt;(in case of failure)" style="text;html=1;strokeColor=none;fillColor=none;align=center;verticalAlign=middle;whiteSpace=wrap;rounded=0;shadow=0;glass=0;sketch=0;fontSize=14;container=0;" parent="1" vertex="1">
          <mxGeometry x="453.15" y="250" width="204.19" height="40" as="geometry" />
        </mxCell>
        <mxCell id="YKJ09xjwko8Qf0GW7CVx-3" value="&lt;font style=&quot;font-size: 24px&quot;&gt;&lt;b&gt;Translog&lt;/b&gt;&lt;/font&gt;" style="text;html=1;strokeColor=none;fillColor=none;align=center;verticalAlign=middle;whiteSpace=wrap;rounded=0;shadow=0;glass=0;sketch=0;fontSize=14;container=0;" parent="1" vertex="1">
          <mxGeometry x="489.43516129032264" y="222.99999999999994" width="131.61290322580643" height="30" as="geometry" />
        </mxCell>
        <mxCell id="YKJ09xjwko8Qf0GW7CVx-4" value="" style="endArrow=classic;html=1;rounded=0;fontSize=24;exitX=0.5;exitY=1;exitDx=0;exitDy=0;entryX=0.5;entryY=0;entryDx=0;entryDy=0;edgeStyle=orthogonalEdgeStyle;" parent="1" source="vBjYf0XeIa-QB8WNCzNQ-1" target="uBwqjXRYKRhRdNdcchoJ-1" edge="1">
          <mxGeometry width="50" height="50" relative="1" as="geometry">
            <mxPoint x="343.15" y="250" as="sourcePoint" />
            <mxPoint x="393.15" y="200" as="targetPoint" />
          </mxGeometry>
        </mxCell>
        <mxCell id="YKJ09xjwko8Qf0GW7CVx-5" value="" style="endArrow=classic;html=1;rounded=0;fontSize=24;entryX=0.5;entryY=0;entryDx=0;entryDy=0;edgeStyle=orthogonalEdgeStyle;exitX=0.5;exitY=1;exitDx=0;exitDy=0;" parent="1" source="vBjYf0XeIa-QB8WNCzNQ-1" target="YKJ09xjwko8Qf0GW7CVx-1" edge="1">
          <mxGeometry width="50" height="50" relative="1" as="geometry">
            <mxPoint x="183.15" y="220" as="sourcePoint" />
            <mxPoint x="190.250744680851" y="230.0000000000001" as="targetPoint" />
            <Array as="points">
              <mxPoint x="376.15" y="150" />
              <mxPoint x="555.15" y="150" />
            </Array>
          </mxGeometry>
        </mxCell>
        <mxCell id="YKJ09xjwko8Qf0GW7CVx-7" value="保证数据可靠性，一致性要求不高场景可以优化，极端场景会丢失部分数据" style="text;html=1;strokeColor=none;fillColor=none;align=center;verticalAlign=middle;whiteSpace=wrap;rounded=0;fontSize=14;" parent="1" vertex="1">
          <mxGeometry x="439.38999999999993" y="160" width="250" height="40" as="geometry" />
        </mxCell>
        <mxCell id="Hf_Ad0sG6sOUvBqlIwYK-4" value="" style="rounded=1;whiteSpace=wrap;html=1;shadow=0;glass=0;sketch=0;fontSize=18;container=0;arcSize=9;fillColor=#fff2cc;strokeColor=#d6b656;" parent="1" vertex="1">
          <mxGeometry x="10" y="360" width="340" height="100" as="geometry" />
        </mxCell>
        <mxCell id="Hf_Ad0sG6sOUvBqlIwYK-5" value="Segment" style="rounded=1;whiteSpace=wrap;html=1;shadow=0;glass=0;sketch=0;fontSize=18;container=0;arcSize=9;fillColor=#fff2cc;strokeColor=#d6b656;" parent="1" vertex="1">
          <mxGeometry x="19.999999999999993" y="421" width="86.86" height="29" as="geometry" />
        </mxCell>
        <mxCell id="Hf_Ad0sG6sOUvBqlIwYK-6" value="Segment" style="rounded=1;whiteSpace=wrap;html=1;shadow=0;glass=0;sketch=0;fontSize=18;container=0;arcSize=9;fillColor=#fff2cc;strokeColor=#d6b656;" parent="1" vertex="1">
          <mxGeometry x="116.86000000000001" y="421" width="83.14" height="29" as="geometry" />
        </mxCell>
        <mxCell id="Hf_Ad0sG6sOUvBqlIwYK-7" value="Segment" style="rounded=1;whiteSpace=wrap;html=1;shadow=0;glass=0;sketch=0;fontSize=18;container=0;arcSize=9;fillColor=#fff2cc;strokeColor=#d6b656;" parent="1" vertex="1">
          <mxGeometry x="255.85000000000005" y="421" width="83.14" height="29" as="geometry" />
        </mxCell>
        <mxCell id="Hf_Ad0sG6sOUvBqlIwYK-8" value="&lt;font style=&quot;font-size: 21px;&quot;&gt;&lt;b&gt;... ...&lt;/b&gt;&lt;/font&gt;" style="text;html=1;strokeColor=none;fillColor=none;align=center;verticalAlign=middle;whiteSpace=wrap;rounded=0;fontSize=14;" parent="1" vertex="1">
          <mxGeometry x="197.66" y="414" width="60" height="30" as="geometry" />
        </mxCell>
        <mxCell id="Hf_Ad0sG6sOUvBqlIwYK-9" value="Make Documents Searchable（OS Cache）" style="text;html=1;strokeColor=none;fillColor=none;align=center;verticalAlign=middle;whiteSpace=wrap;rounded=0;shadow=0;glass=0;sketch=0;fontSize=14;container=0;" parent="1" vertex="1">
          <mxGeometry x="50.23000000000001" y="381" width="295.25" height="40" as="geometry" />
        </mxCell>
        <mxCell id="Hf_Ad0sG6sOUvBqlIwYK-10" value="" style="endArrow=classic;html=1;rounded=0;fontSize=24;exitX=0.5;exitY=1;exitDx=0;exitDy=0;entryX=0.5;entryY=0;entryDx=0;entryDy=0;" parent="1" source="uBwqjXRYKRhRdNdcchoJ-1" target="Hf_Ad0sG6sOUvBqlIwYK-4" edge="1">
          <mxGeometry width="50" height="50" relative="1" as="geometry">
            <mxPoint x="191.05499999999975" y="50" as="sourcePoint" />
            <mxPoint x="190.25074468085077" y="230" as="targetPoint" />
          </mxGeometry>
        </mxCell>
        <mxCell id="Hf_Ad0sG6sOUvBqlIwYK-11" value="默认每隔1秒生成一个Segment，此时可以被搜索，也是准实时的原因" style="text;html=1;strokeColor=none;fillColor=none;align=center;verticalAlign=middle;whiteSpace=wrap;rounded=0;fontSize=14;" parent="1" vertex="1">
          <mxGeometry x="182.1" y="300" width="220" height="40" as="geometry" />
        </mxCell>
        <mxCell id="LTWLjPx3-0J2L1Ws2s9t-1" value="&lt;font style=&quot;font-size: 24px&quot;&gt;&lt;b&gt;Refresh&lt;/b&gt;&lt;/font&gt;" style="text;html=1;strokeColor=none;fillColor=none;align=center;verticalAlign=middle;whiteSpace=wrap;rounded=0;shadow=0;glass=0;sketch=0;fontSize=14;container=0;" parent="1" vertex="1">
          <mxGeometry x="117.10516129032266" y="365" width="131.61290322580643" height="30" as="geometry" />
        </mxCell>
        <mxCell id="1eGuVwIJlSKcSeB0bl8v-1" value="" style="rounded=1;whiteSpace=wrap;html=1;shadow=0;glass=0;sketch=0;fontSize=18;container=0;arcSize=9;fillColor=#fff2cc;strokeColor=#d6b656;" parent="1" vertex="1">
          <mxGeometry x="90" y="530" width="180" height="70" as="geometry" />
        </mxCell>
        <mxCell id="1eGuVwIJlSKcSeB0bl8v-2" value="Store Changes to Disk" style="text;html=1;strokeColor=none;fillColor=none;align=center;verticalAlign=middle;whiteSpace=wrap;rounded=0;shadow=0;glass=0;sketch=0;fontSize=14;container=0;" parent="1" vertex="1">
          <mxGeometry x="77.90999999999997" y="560" width="204.19" height="40" as="geometry" />
        </mxCell>
        <mxCell id="1eGuVwIJlSKcSeB0bl8v-3" value="&lt;font style=&quot;font-size: 24px&quot;&gt;&lt;b&gt;Flush&lt;/b&gt;&lt;/font&gt;" style="text;html=1;strokeColor=none;fillColor=none;align=center;verticalAlign=middle;whiteSpace=wrap;rounded=0;shadow=0;glass=0;sketch=0;fontSize=14;container=0;" parent="1" vertex="1">
          <mxGeometry x="117.10516129032263" y="533" width="131.61290322580643" height="30" as="geometry" />
        </mxCell>
        <mxCell id="qylzhFjrRChoiUN6LMyh-1" value="" style="rounded=1;whiteSpace=wrap;html=1;shadow=0;glass=0;sketch=0;fontSize=18;container=0;arcSize=9;fillColor=#dae8fc;strokeColor=#6c8ebf;" parent="1" vertex="1">
          <mxGeometry x="430" y="530" width="150" height="70" as="geometry" />
        </mxCell>
        <mxCell id="qylzhFjrRChoiUN6LMyh-2" value="Optimize Segments" style="text;html=1;strokeColor=none;fillColor=none;align=center;verticalAlign=middle;whiteSpace=wrap;rounded=0;shadow=0;glass=0;sketch=0;fontSize=14;container=0;" parent="1" vertex="1">
          <mxGeometry x="402.1" y="557.95" width="204.19" height="40" as="geometry" />
        </mxCell>
        <mxCell id="qylzhFjrRChoiUN6LMyh-3" value="&lt;font style=&quot;font-size: 24px&quot;&gt;&lt;b&gt;Merge&lt;/b&gt;&lt;/font&gt;" style="text;html=1;strokeColor=none;fillColor=none;align=center;verticalAlign=middle;whiteSpace=wrap;rounded=0;shadow=0;glass=0;sketch=0;fontSize=14;container=0;" parent="1" vertex="1">
          <mxGeometry x="438.39" y="533" width="131.61" height="27.95" as="geometry" />
        </mxCell>
        <mxCell id="qylzhFjrRChoiUN6LMyh-4" value="" style="endArrow=classic;html=1;rounded=0;fontSize=24;exitX=0.5;exitY=1;exitDx=0;exitDy=0;entryX=0.5;entryY=0;entryDx=0;entryDy=0;" parent="1" source="Hf_Ad0sG6sOUvBqlIwYK-4" target="1eGuVwIJlSKcSeB0bl8v-1" edge="1">
          <mxGeometry width="50" height="50" relative="1" as="geometry">
            <mxPoint x="190.00500000000002" y="340" as="sourcePoint" />
            <mxPoint x="189.99999999999991" y="430" as="targetPoint" />
          </mxGeometry>
        </mxCell>
        <mxCell id="qylzhFjrRChoiUN6LMyh-5" value="" style="endArrow=classic;html=1;rounded=0;fontSize=24;exitX=1;exitY=0.5;exitDx=0;exitDy=0;entryX=0;entryY=0.5;entryDx=0;entryDy=0;" parent="1" source="1eGuVwIJlSKcSeB0bl8v-1" target="qylzhFjrRChoiUN6LMyh-1" edge="1">
          <mxGeometry width="50" height="50" relative="1" as="geometry">
            <mxPoint x="212.09999999999994" y="500" as="sourcePoint" />
            <mxPoint x="190.005" y="540" as="targetPoint" />
          </mxGeometry>
        </mxCell>
        <mxCell id="-pFSHD6bYM_6v9R8J1s4-1" value="" style="endArrow=classic;html=1;rounded=0;fontSize=24;exitX=0.5;exitY=1;exitDx=0;exitDy=0;entryX=0.5;entryY=0;entryDx=0;entryDy=0;edgeStyle=orthogonalEdgeStyle;" parent="1" source="YKJ09xjwko8Qf0GW7CVx-2" target="1eGuVwIJlSKcSeB0bl8v-1" edge="1">
          <mxGeometry width="50" height="50" relative="1" as="geometry">
            <mxPoint x="190.0099999999999" y="480" as="sourcePoint" />
            <mxPoint x="190.00500000000002" y="600" as="targetPoint" />
            <Array as="points">
              <mxPoint x="555.15" y="490" />
              <mxPoint x="180.15" y="490" />
            </Array>
          </mxGeometry>
        </mxCell>
        <mxCell id="-pFSHD6bYM_6v9R8J1s4-2" value="默认每隔30分钟或者超过指定大小强行将Segment文件写入磁盘，并清理之前的translog文件" style="text;html=1;strokeColor=none;fillColor=none;align=center;verticalAlign=middle;whiteSpace=wrap;rounded=0;fontSize=14;" parent="1" vertex="1">
          <mxGeometry x="483.15" y="395" width="220" height="55" as="geometry" />
        </mxCell>
        <mxCell id="-pFSHD6bYM_6v9R8J1s4-3" value="定期合并Segment文件，提高查询效率" style="text;html=1;strokeColor=none;fillColor=none;align=center;verticalAlign=middle;whiteSpace=wrap;rounded=0;fontSize=14;" parent="1" vertex="1">
          <mxGeometry x="320" y="590" width="270" height="60" as="geometry" />
        </mxCell>
      </root>
    </mxGraphModel>
  </diagram>
</mxfile>
